<svg width="250" height="133" viewBox="0 0 250 133" fill="none" xmlns="http://www.w3.org/2000/svg">
<g clip-path="url(#clip0_158_2)">
<path d="M83.4008 85.0246C84.068 85.3608 84.1739 86.5554 83.6625 86.9498L80.6503 90.9752C80.3446 91.6364 79.1661 91.6947 78.7546 91.1613C78.0875 90.8251 77.9816 89.6305 78.493 89.2361L81.5052 85.2107C81.8108 84.5495 82.7836 84.2245 83.4008 85.0246ZM88.3766 32.2628C88.6822 31.6016 89.4493 31.0099 90.1164 31.346L95.0922 33.0381C95.7594 33.3743 96.3766 34.1744 96.071 34.8356C95.5097 35.694 94.9983 36.0885 94.0755 35.9495L89.0997 34.2575C88.6882 33.7241 88.071 32.9239 88.3766 32.2628Z" fill="white"/>
<path fill-rule="evenodd" clip-rule="evenodd" d="M88.6104 60.5857C86.2913 55.9934 82.4881 52.1205 77.3065 50.1618C83.2112 54.1152 86.6648 61.2357 85.8658 68.6588C84.5115 79.0628 75.0513 86.3606 64.9 84.8322C63.5157 84.6238 62.3872 84.2182 61.2586 83.8125C63.6716 85.3545 66.3402 86.6992 69.3644 86.9188C76.7472 88.0303 83.4508 84.5606 87.33 79.0157C85.3665 73.2982 85.8598 66.5363 88.6104 60.5857Z" fill="#FFAE54"/>
<path d="M74.9174 111.564C50.3801 115.177 26.7056 97.7047 22.5868 72.8043C18.0065 47.8344 34.8015 24.6683 59.3389 21.0548C75.5267 18.7773 91.2271 25.3842 101.408 37.525C102.643 39.1252 102.904 41.0505 101.988 43.034C101.071 45.0175 99.4368 47.1289 97.1856 48.44C96.4186 49.0318 95.6515 49.6235 94.8845 50.2152C91.305 52.9765 88.5484 56.8047 86.7147 60.7717C83.5606 50.8676 73.703 44.4332 63.4577 45.9552C52.034 47.5356 44.7871 58.2311 46.6128 69.5853C48.4385 80.9395 59.5306 88.9742 70.493 87.3244C76.6912 86.3717 82.0106 82.6937 84.9169 77.4737C85.8518 81.8576 87.7594 85.9165 90.6398 89.6504C92.2857 91.7841 93.9816 93.4538 96.1389 95.193C97.2176 96.0625 98.2463 97.3961 98.3522 98.5907C98.458 99.7853 98.3581 100.713 97.5911 101.305C91.4048 106.503 83.5227 110.03 74.9174 111.564Z" fill="url(#paint0_radial_158_2)" stroke="#AC562A" stroke-width="1.0716"/>
<path d="M74.4141 96.6369L75.9541 97.5759C74.2203 100.615 70.8905 101.057 68.4835 101.637C68.4835 101.637 68.4835 101.637 68.2278 101.835C66.7936 102.09 65.615 102.148 64.848 102.74C63.3639 103.46 62.0855 104.446 61.5242 105.304C60.9629 106.163 60.813 107.554 61.3803 108.818C61.7419 109.816 63.0263 110.952 65.2835 111.763C77.3803 112.642 88.848 108.475 97.1297 101.235C97.8967 100.644 98.2523 99.5186 98.1464 98.324C98.0406 97.1294 97.0118 95.7959 95.9332 94.9263C93.9816 93.4538 92.08 91.5174 90.6398 89.6505C87.7594 85.9166 85.8518 81.8577 85.1726 77.2765C82.2663 82.4965 77.2026 85.9773 71.2101 87.1967C70.2373 87.5217 69.3144 87.3828 68.1359 87.4411C69.2146 88.3107 70.5489 88.983 72.8061 89.7943C75.5247 90.6751 76.098 94.0616 74.4141 96.6369ZM74.4141 96.6369C72.9858 99.0149 70.3731 99.3287 67.9661 99.9093C66.5319 100.165 65.0977 100.42 63.8692 100.943L74.4141 96.6369ZM80.7422 50.9148C76.839 47.9699 75.0872 44.6416 74.464 41.719C74.0965 38.5992 74.446 35.3516 75.8742 32.9736C77.3524 30.1316 79.4478 28.0898 81.9047 27.0453C84.3616 26.0008 86.7187 25.8842 88.7202 26.8927C94.0076 30.0461 98.7337 34.0578 102.231 38.5919C103.26 39.9254 103.316 41.5839 102.655 43.3702C101.994 45.1565 100.41 46.8039 98.6698 47.7206C97.4413 48.2429 96.1629 49.2291 94.8845 50.2152C91.305 52.9766 88.5484 56.8047 86.7147 60.7718C85.7299 56.8518 83.5167 53.4541 80.7422 50.9148Z" fill="#AC562A" stroke="#AC562A" stroke-width="1.0716"/>
<path d="M51.8923 33.6061C52.6877 34.6372 54.1338 34.8549 55.1223 34.0924C56.1107 33.3299 56.2672 31.8759 55.4718 30.8448C54.6764 29.8137 53.2303 29.596 52.2419 30.3585C51.2534 31.121 51.0969 32.575 51.8923 33.6061Z" fill="#AC562A"/>
<path d="M41.3294 85.9983C42.1248 87.0293 43.5709 87.2471 44.5594 86.4845C45.5478 85.722 45.7044 84.268 44.909 83.2369C44.1135 82.2059 42.6674 81.9881 41.679 82.7507C40.6905 83.5132 40.534 84.9672 41.3294 85.9983Z" fill="#AC562A"/>
<path d="M29.4643 76.4328C30.8278 78.2003 33.3069 78.5736 35.0014 77.2664C36.6959 75.9592 36.9642 73.4667 35.6006 71.6991C34.2371 69.9315 31.7581 69.5583 30.0635 70.8654C28.369 72.1726 28.1007 74.6652 29.4643 76.4328Z" fill="#AC562A"/>
</g>
<path d="M134.096 80.9079V55.5279H155.516V80.9079H152.204V58.3359H137.408V80.9079H134.096ZM168.426 81.2319C166.842 81.2319 165.45 80.8599 164.25 80.1159C163.05 79.3719 162.114 78.2919 161.442 76.8759C160.77 75.4599 160.434 73.7799 160.434 71.8359C160.434 69.8919 160.77 68.2239 161.442 66.8319C162.114 65.4159 163.05 64.3359 164.25 63.5919C165.45 62.8479 166.842 62.4759 168.426 62.4759C170.034 62.4759 171.426 62.8839 172.602 63.6999C173.802 64.4919 174.594 65.5839 174.978 66.9759H174.546L174.942 62.7999H178.11C178.038 63.5199 177.966 64.2399 177.894 64.9599C177.846 65.6799 177.822 66.3879 177.822 67.0839V80.9079H174.546V76.7679H174.942C174.558 78.1359 173.766 79.2279 172.566 80.0439C171.39 80.8359 170.01 81.2319 168.426 81.2319ZM169.182 78.6399C170.814 78.6399 172.122 78.0639 173.106 76.9119C174.09 75.7599 174.582 74.0679 174.582 71.8359C174.582 69.6039 174.09 67.9239 173.106 66.7959C172.122 65.6679 170.814 65.1039 169.182 65.1039C167.55 65.1039 166.23 65.6679 165.222 66.7959C164.238 67.9239 163.746 69.6039 163.746 71.8359C163.746 74.0679 164.238 75.7599 165.222 76.9119C166.206 78.0639 167.526 78.6399 169.182 78.6399ZM183.877 80.9079V55.5279H205.297V80.9079H201.985V58.3359H187.189V80.9079H183.877ZM211.187 80.9079V62.7999H214.175V77.8119H213.203L224.435 62.7999H227.171V80.9079H224.183V65.8599H225.191L213.923 80.9079H211.187ZM232.773 80.9079V62.7999H236.013V70.2879H239.289L245.121 62.7999H248.685L241.917 71.6199L241.053 70.6119C241.749 70.6839 242.349 70.8639 242.853 71.1519C243.357 71.4159 243.837 71.8119 244.293 72.3399C244.773 72.8679 245.289 73.5759 245.841 74.4639L249.585 80.9079H246.057L242.781 75.3279C242.421 74.6799 242.061 74.1759 241.701 73.8159C241.341 73.4559 240.933 73.2039 240.477 73.0599C240.045 72.9159 239.493 72.8439 238.821 72.8439H236.013V80.9079H232.773Z" fill="white"/>
<defs>
<radialGradient id="paint0_radial_158_2" cx="0" cy="0" r="1" gradientUnits="userSpaceOnUse" gradientTransform="translate(67.0235 66.3313) rotate(142.353) scale(46.4287 47.9429)">
<stop offset="0.3335" stop-color="#F7B450"/>
<stop offset="0.6477" stop-color="#FFC977"/>
<stop offset="1" stop-color="#FF9900"/>
</radialGradient>
<clipPath id="clip0_158_2">
<rect width="96" height="93" fill="white" transform="translate(74.5) rotate(52.3527)"/>
</clipPath>
</defs>
</svg>
