<svg width="1920" height="439" viewBox="0 0 1920 439" fill="none" xmlns="http://www.w3.org/2000/svg">
<rect width="1920" height="439" fill="#223138"/>
<path d="M869.078 84V61.44H888.342V84H885.046V64.192H872.374V84H869.078ZM900.456 84.288C898.856 84.288 897.47 83.9573 896.296 83.296C895.123 82.6133 894.216 81.6533 893.576 80.416C892.936 79.1573 892.616 77.664 892.616 75.936C892.616 74.208 892.936 72.7253 893.576 71.488C894.216 70.2293 895.123 69.2693 896.296 68.608C897.47 67.9253 898.856 67.584 900.456 67.584C902.056 67.584 903.443 67.9253 904.616 68.608C905.811 69.2693 906.728 70.2293 907.368 71.488C908.03 72.7253 908.36 74.208 908.36 75.936C908.36 77.664 908.03 79.1573 907.368 80.416C906.728 81.6533 905.811 82.6133 904.616 83.296C903.443 83.9573 902.056 84.288 900.456 84.288ZM900.456 81.76C901.864 81.76 902.984 81.2693 903.816 80.288C904.648 79.3067 905.064 77.856 905.064 75.936C905.064 74.016 904.648 72.576 903.816 71.616C902.984 70.6347 901.864 70.144 900.456 70.144C899.07 70.144 897.96 70.6347 897.128 71.616C896.296 72.576 895.88 74.016 895.88 75.936C895.88 77.856 896.286 79.3067 897.096 80.288C897.928 81.2693 899.048 81.76 900.456 81.76ZM922.658 84V77.76C922.061 78.08 921.421 78.336 920.738 78.528C920.055 78.6987 919.33 78.784 918.562 78.784C916.237 78.784 914.509 78.24 913.378 77.152C912.269 76.0427 911.714 74.3893 911.714 72.192V67.872H914.914V71.936C914.914 73.408 915.245 74.4747 915.906 75.136C916.567 75.7973 917.613 76.128 919.042 76.128C919.767 76.128 920.407 76.0533 920.962 75.904C921.517 75.7333 922.061 75.4773 922.594 75.136V67.872H925.826V84H922.658ZM938.25 84.288C935.648 84.288 933.6 83.552 932.106 82.08C930.613 80.608 929.866 78.5707 929.866 75.968C929.866 74.2827 930.186 72.8107 930.826 71.552C931.488 70.2933 932.394 69.3227 933.546 68.64C934.72 67.936 936.074 67.584 937.61 67.584C939.125 67.584 940.394 67.904 941.418 68.544C942.442 69.184 943.221 70.0907 943.754 71.264C944.288 72.416 944.554 73.7813 944.554 75.36V76.384H932.394V74.528H942.346L941.802 74.944C941.802 73.344 941.44 72.1067 940.714 71.232C940.01 70.336 938.986 69.888 937.642 69.888C936.149 69.888 934.997 70.4107 934.186 71.456C933.376 72.48 932.97 73.8987 932.97 75.712V76.032C932.97 77.9307 933.429 79.36 934.346 80.32C935.285 81.28 936.608 81.76 938.314 81.76C939.253 81.76 940.128 81.632 940.938 81.376C941.77 81.0987 942.56 80.6507 943.306 80.032L944.362 82.24C943.616 82.9013 942.709 83.4133 941.642 83.776C940.576 84.1173 939.445 84.288 938.25 84.288ZM948.51 84V67.872H951.198L957.022 78.176L962.846 67.872H965.534V84H962.686V71.488H963.39L957.79 81.408H956.254L950.654 71.488H951.358V84H948.51ZM970.033 91.264L969.265 88.64C970.268 88.4267 971.1 88.1707 971.761 87.872C972.444 87.5733 973.009 87.1787 973.457 86.688C973.905 86.2187 974.289 85.6107 974.609 84.864L975.409 82.976L975.345 84.288L968.337 67.872H971.793L977.233 81.312H976.369L981.809 67.872H985.137L977.745 85.152C977.276 86.2187 976.774 87.1147 976.241 87.84C975.708 88.5653 975.132 89.152 974.513 89.6C973.894 90.048 973.212 90.4 972.465 90.656C971.718 90.912 970.908 91.1147 970.033 91.264ZM996.448 84V67.872H999.136L1004.96 78.176L1010.78 67.872H1013.47V84H1010.62V71.488H1011.33L1005.73 81.408H1004.19L998.592 71.488H999.296V84H996.448ZM1018.32 84V67.872H1021.52V73.504H1026.1C1028.21 73.504 1029.8 73.952 1030.87 74.848C1031.93 75.7227 1032.47 77.0027 1032.47 78.688C1032.47 79.776 1032.22 80.7253 1031.73 81.536C1031.24 82.3253 1030.51 82.9333 1029.55 83.36C1028.62 83.7867 1027.46 84 1026.1 84H1018.32ZM1021.52 81.792H1025.75C1026.96 81.792 1027.88 81.5467 1028.5 81.056C1029.14 80.544 1029.46 79.7653 1029.46 78.72C1029.46 77.6747 1029.14 76.9173 1028.5 76.448C1027.88 75.9573 1026.96 75.712 1025.75 75.712H1021.52V81.792ZM1034.74 84V67.872H1037.94V84H1034.74ZM1045.52 77.76V76.64C1045.52 75.616 1045.71 74.6453 1046.1 73.728C1046.5 72.8107 1047.2 71.808 1048.21 70.72C1049 69.8667 1049.55 69.1307 1049.87 68.512C1050.19 67.872 1050.35 67.2213 1050.35 66.56C1050.35 65.728 1050.04 65.0773 1049.42 64.608C1048.8 64.1387 1047.96 63.904 1046.9 63.904C1046.06 63.904 1045.25 64.0213 1044.46 64.256C1043.67 64.4907 1042.93 64.8107 1042.22 65.216V62.336C1042.95 61.952 1043.75 61.664 1044.62 61.472C1045.52 61.2587 1046.42 61.152 1047.31 61.152C1048.53 61.152 1049.62 61.344 1050.58 61.728C1051.54 62.0907 1052.28 62.6453 1052.82 63.392C1053.37 64.1387 1053.65 65.0773 1053.65 66.208C1053.65 66.8907 1053.53 67.552 1053.3 68.192C1053.06 68.832 1052.72 69.4613 1052.27 70.08C1051.82 70.6987 1051.26 71.3387 1050.58 72C1049.53 73.0027 1048.79 73.8773 1048.37 74.624C1047.96 75.3707 1047.72 76.128 1047.63 76.896L1047.5 77.76H1045.52ZM1044.59 84V80.192H1048.43V84H1044.59Z" fill="white"/>
<path d="M372.094 264V241.44H387.71V244.064H375.294V251.168H382.174C384.627 251.168 386.526 251.701 387.87 252.768C389.235 253.835 389.918 255.424 389.918 257.536C389.918 259.648 389.235 261.259 387.87 262.368C386.526 263.456 384.627 264 382.174 264H372.094ZM375.294 261.376H381.822C383.486 261.376 384.712 261.067 385.502 260.448C386.291 259.808 386.686 258.848 386.686 257.568C386.686 256.288 386.291 255.339 385.502 254.72C384.712 254.101 383.486 253.792 381.822 253.792H375.294V261.376ZM393.682 264V247.872H396.882V253.504H401.458C403.57 253.504 405.159 253.952 406.226 254.848C407.293 255.723 407.826 257.003 407.826 258.688C407.826 259.776 407.581 260.725 407.09 261.536C406.599 262.325 405.874 262.933 404.914 263.36C403.975 263.787 402.823 264 401.458 264H393.682ZM396.882 261.792H401.106C402.322 261.792 403.239 261.547 403.858 261.056C404.498 260.544 404.818 259.765 404.818 258.72C404.818 257.675 404.498 256.917 403.858 256.448C403.239 255.957 402.322 255.712 401.106 255.712H396.882V261.792ZM410.098 264V247.872H413.298V264H410.098ZM425.32 264.288C423.698 264.288 422.28 263.957 421.064 263.296C419.869 262.613 418.941 261.643 418.28 260.384C417.64 259.104 417.32 257.589 417.32 255.84C417.32 254.112 417.65 252.629 418.312 251.392C418.973 250.155 419.901 249.216 421.096 248.576C422.29 247.915 423.698 247.584 425.32 247.584C426.365 247.584 427.378 247.765 428.36 248.128C429.341 248.469 430.152 248.96 430.792 249.6L429.736 251.872C429.138 251.296 428.466 250.869 427.72 250.592C426.973 250.293 426.248 250.144 425.544 250.144C424.008 250.144 422.802 250.635 421.928 251.616C421.053 252.597 420.616 254.016 420.616 255.872C420.616 257.749 421.053 259.189 421.928 260.192C422.802 261.195 424.008 261.696 425.544 261.696C426.226 261.696 426.941 261.568 427.688 261.312C428.434 261.035 429.117 260.597 429.736 260L430.792 262.272C430.13 262.912 429.298 263.413 428.296 263.776C427.314 264.117 426.322 264.288 425.32 264.288ZM437.919 264V250.464H432.223V247.872H446.847V250.464H441.119V264H437.919ZM449.56 270.912V251.744C449.56 251.125 449.528 250.496 449.464 249.856C449.421 249.195 449.368 248.533 449.304 247.872H452.44L452.76 251.52H452.408C452.749 250.304 453.432 249.344 454.456 248.64C455.501 247.936 456.739 247.584 458.168 247.584C459.597 247.584 460.845 247.925 461.912 248.608C462.979 249.269 463.8 250.219 464.376 251.456C464.973 252.693 465.272 254.187 465.272 255.936C465.272 257.664 464.973 259.157 464.376 260.416C463.8 261.675 462.979 262.635 461.912 263.296C460.845 263.957 459.597 264.288 458.168 264.288C456.76 264.288 455.533 263.947 454.488 263.264C453.464 262.56 452.781 261.611 452.44 260.416H452.792V270.912H449.56ZM457.368 261.76C458.776 261.76 459.896 261.269 460.728 260.288C461.581 259.307 462.008 257.856 462.008 255.936C462.008 254.016 461.581 252.576 460.728 251.616C459.896 250.635 458.776 250.144 457.368 250.144C455.96 250.144 454.829 250.635 453.976 251.616C453.144 252.576 452.728 254.016 452.728 255.936C452.728 257.856 453.144 259.307 453.976 260.288C454.829 261.269 455.96 261.76 457.368 261.76ZM476.891 264.288C474.288 264.288 472.24 263.552 470.747 262.08C469.254 260.608 468.507 258.571 468.507 255.968C468.507 254.283 468.827 252.811 469.467 251.552C470.128 250.293 471.035 249.323 472.187 248.64C473.36 247.936 474.715 247.584 476.251 247.584C477.766 247.584 479.035 247.904 480.059 248.544C481.083 249.184 481.862 250.091 482.395 251.264C482.928 252.416 483.195 253.781 483.195 255.36V256.384H471.035V254.528H480.987L480.443 254.944C480.443 253.344 480.08 252.107 479.355 251.232C478.651 250.336 477.627 249.888 476.283 249.888C474.79 249.888 473.638 250.411 472.827 251.456C472.016 252.48 471.611 253.899 471.611 255.712V256.032C471.611 257.931 472.07 259.36 472.987 260.32C473.926 261.28 475.248 261.76 476.955 261.76C477.894 261.76 478.768 261.632 479.579 261.376C480.411 261.099 481.2 260.651 481.947 260.032L483.003 262.24C482.256 262.901 481.35 263.413 480.283 263.776C479.216 264.117 478.086 264.288 476.891 264.288ZM494.735 264.288C492.132 264.288 490.084 263.552 488.591 262.08C487.097 260.608 486.351 258.571 486.351 255.968C486.351 254.283 486.671 252.811 487.311 251.552C487.972 250.293 488.879 249.323 490.031 248.64C491.204 247.936 492.559 247.584 494.095 247.584C495.609 247.584 496.879 247.904 497.903 248.544C498.927 249.184 499.705 250.091 500.239 251.264C500.772 252.416 501.039 253.781 501.039 255.36V256.384H488.879V254.528H498.831L498.287 254.944C498.287 253.344 497.924 252.107 497.199 251.232C496.495 250.336 495.471 249.888 494.127 249.888C492.633 249.888 491.481 250.411 490.671 251.456C489.86 252.48 489.455 253.899 489.455 255.712V256.032C489.455 257.931 489.913 259.36 490.831 260.32C491.769 261.28 493.092 261.76 494.799 261.76C495.737 261.76 496.612 261.632 497.423 261.376C498.255 261.099 499.044 260.651 499.791 260.032L500.847 262.24C500.1 262.901 499.193 263.413 498.127 263.776C497.06 264.117 495.929 264.288 494.735 264.288Z" fill="white"/>
<path d="M884.808 269.152V261.344H887.144C888.253 260 889.075 258.176 889.608 255.872C890.141 253.547 890.408 250.688 890.408 247.296V241.44H906.248V261.344H909.544V269.152H906.632V264H887.784V269.152H884.808ZM890.504 261.344H902.952V244.064H893.48V247.552C893.48 250.859 893.235 253.621 892.744 255.84C892.275 258.037 891.528 259.872 890.504 261.344ZM920.282 264.288C917.679 264.288 915.631 263.552 914.138 262.08C912.644 260.608 911.898 258.571 911.898 255.968C911.898 254.283 912.218 252.811 912.858 251.552C913.519 250.293 914.426 249.323 915.578 248.64C916.751 247.936 918.106 247.584 919.642 247.584C921.156 247.584 922.426 247.904 923.45 248.544C924.474 249.184 925.252 250.091 925.786 251.264C926.319 252.416 926.586 253.781 926.586 255.36V256.384H914.426V254.528H924.378L923.834 254.944C923.834 253.344 923.471 252.107 922.746 251.232C922.042 250.336 921.018 249.888 919.674 249.888C918.18 249.888 917.028 250.411 916.218 251.456C915.407 252.48 915.002 253.899 915.002 255.712V256.032C915.002 257.931 915.46 259.36 916.378 260.32C917.316 261.28 918.639 261.76 920.346 261.76C921.284 261.76 922.159 261.632 922.97 261.376C923.802 261.099 924.591 260.651 925.338 260.032L926.394 262.24C925.647 262.901 924.74 263.413 923.674 263.776C922.607 264.117 921.476 264.288 920.282 264.288ZM930.541 264V247.872H933.581V261.472H939.885V247.872H942.925V261.472H949.197V247.872H952.269V264H930.541ZM964.719 264.288C962.116 264.288 960.068 263.552 958.575 262.08C957.082 260.608 956.335 258.571 956.335 255.968C956.335 254.283 956.655 252.811 957.295 251.552C957.956 250.293 958.863 249.323 960.015 248.64C961.188 247.936 962.543 247.584 964.079 247.584C965.594 247.584 966.863 247.904 967.887 248.544C968.911 249.184 969.69 250.091 970.223 251.264C970.756 252.416 971.023 253.781 971.023 255.36V256.384H958.863V254.528H968.815L968.271 254.944C968.271 253.344 967.908 252.107 967.183 251.232C966.479 250.336 965.455 249.888 964.111 249.888C962.618 249.888 961.466 250.411 960.655 251.456C959.844 252.48 959.439 253.899 959.439 255.712V256.032C959.439 257.931 959.898 259.36 960.815 260.32C961.754 261.28 963.076 261.76 964.783 261.76C965.722 261.76 966.596 261.632 967.407 261.376C968.239 261.099 969.028 260.651 969.775 260.032L970.831 262.24C970.084 262.901 969.178 263.413 968.111 263.776C967.044 264.117 965.914 264.288 964.719 264.288ZM974.979 264V247.872H983.107C985.048 247.872 986.478 248.245 987.395 248.992C988.334 249.717 988.803 250.752 988.803 252.096C988.803 253.141 988.451 254.005 987.747 254.688C987.064 255.371 986.158 255.787 985.027 255.936V255.52C986.371 255.584 987.427 255.979 988.195 256.704C988.963 257.429 989.347 258.368 989.347 259.52C989.347 260.907 988.824 262.005 987.779 262.816C986.755 263.605 985.294 264 983.395 264H974.979ZM978.019 261.92H983.139C984.184 261.92 984.984 261.707 985.539 261.28C986.094 260.832 986.371 260.192 986.371 259.36C986.371 258.528 986.094 257.899 985.539 257.472C984.984 257.045 984.184 256.832 983.139 256.832H978.019V261.92ZM978.019 254.752H982.787C983.747 254.752 984.494 254.539 985.027 254.112C985.56 253.685 985.827 253.099 985.827 252.352C985.827 251.584 985.56 250.997 985.027 250.592C984.494 250.165 983.747 249.952 982.787 249.952H978.019V254.752ZM992.494 264.416L991.406 261.856C992.132 261.557 992.74 261.184 993.23 260.736C993.742 260.267 994.137 259.669 994.414 258.944C994.713 258.219 994.926 257.323 995.054 256.256C995.182 255.189 995.246 253.899 995.246 252.384V247.872H1007.41V264H1004.21V250.4H998.222V252.48C998.222 254.912 998.03 256.928 997.646 258.528C997.262 260.128 996.644 261.397 995.79 262.336C994.958 263.253 993.86 263.947 992.494 264.416ZM1019.84 264.288C1017.24 264.288 1015.19 263.552 1013.7 262.08C1012.21 260.608 1011.46 258.571 1011.46 255.968C1011.46 254.283 1011.78 252.811 1012.42 251.552C1013.08 250.293 1013.99 249.323 1015.14 248.64C1016.31 247.936 1017.67 247.584 1019.2 247.584C1020.72 247.584 1021.99 247.904 1023.01 248.544C1024.04 249.184 1024.81 250.091 1025.35 251.264C1025.88 252.416 1026.15 253.781 1026.15 255.36V256.384H1013.99V254.528H1023.94L1023.4 254.944C1023.4 253.344 1023.03 252.107 1022.31 251.232C1021.6 250.336 1020.58 249.888 1019.24 249.888C1017.74 249.888 1016.59 250.411 1015.78 251.456C1014.97 252.48 1014.56 253.899 1014.56 255.712V256.032C1014.56 257.931 1015.02 259.36 1015.94 260.32C1016.88 261.28 1018.2 261.76 1019.91 261.76C1020.85 261.76 1021.72 261.632 1022.53 261.376C1023.36 261.099 1024.15 260.651 1024.9 260.032L1025.96 262.24C1025.21 262.901 1024.3 263.413 1023.24 263.776C1022.17 264.117 1021.04 264.288 1019.84 264.288Z" fill="white"/>
<path d="M1412.11 264V241.44H1427.73V244.064H1415.31V251.168H1422.19C1424.64 251.168 1426.54 251.701 1427.89 252.768C1429.25 253.835 1429.93 255.424 1429.93 257.536C1429.93 259.648 1429.25 261.259 1427.89 262.368C1426.54 263.456 1424.64 264 1422.19 264H1412.11ZM1415.31 261.376H1421.84C1423.5 261.376 1424.73 261.067 1425.52 260.448C1426.31 259.808 1426.7 258.848 1426.7 257.568C1426.7 256.288 1426.31 255.339 1425.52 254.72C1424.73 254.101 1423.5 253.792 1421.84 253.792H1415.31V261.376ZM1441.28 264.288C1438.68 264.288 1436.63 263.552 1435.14 262.08C1433.64 260.608 1432.9 258.571 1432.9 255.968C1432.9 254.283 1433.22 252.811 1433.86 251.552C1434.52 250.293 1435.43 249.323 1436.58 248.64C1437.75 247.936 1439.11 247.584 1440.64 247.584C1442.16 247.584 1443.43 247.904 1444.45 248.544C1445.47 249.184 1446.25 250.091 1446.79 251.264C1447.32 252.416 1447.59 253.781 1447.59 255.36V256.384H1435.43V254.528H1445.38L1444.83 254.944C1444.83 253.344 1444.47 252.107 1443.75 251.232C1443.04 250.336 1442.02 249.888 1440.67 249.888C1439.18 249.888 1438.03 250.411 1437.22 251.456C1436.41 252.48 1436 253.899 1436 255.712V256.032C1436 257.931 1436.46 259.36 1437.38 260.32C1438.32 261.28 1439.64 261.76 1441.35 261.76C1442.28 261.76 1443.16 261.632 1443.97 261.376C1444.8 261.099 1445.59 260.651 1446.34 260.032L1447.39 262.24C1446.65 262.901 1445.74 263.413 1444.67 263.776C1443.61 264.117 1442.48 264.288 1441.28 264.288ZM1451.67 270.912V251.744C1451.67 251.125 1451.64 250.496 1451.57 249.856C1451.53 249.195 1451.48 248.533 1451.41 247.872H1454.55L1454.87 251.52H1454.52C1454.86 250.304 1455.54 249.344 1456.57 248.64C1457.61 247.936 1458.85 247.584 1460.28 247.584C1461.71 247.584 1462.95 247.925 1464.02 248.608C1465.09 249.269 1465.91 250.219 1466.49 251.456C1467.08 252.693 1467.38 254.187 1467.38 255.936C1467.38 257.664 1467.08 259.157 1466.49 260.416C1465.91 261.675 1465.09 262.635 1464.02 263.296C1462.95 263.957 1461.71 264.288 1460.28 264.288C1458.87 264.288 1457.64 263.947 1456.6 263.264C1455.57 262.56 1454.89 261.611 1454.55 260.416H1454.9V270.912H1451.67ZM1459.48 261.76C1460.89 261.76 1462.01 261.269 1462.84 260.288C1463.69 259.307 1464.12 257.856 1464.12 255.936C1464.12 254.016 1463.69 252.576 1462.84 251.616C1462.01 250.635 1460.89 250.144 1459.48 250.144C1458.07 250.144 1456.94 250.635 1456.09 251.616C1455.25 252.576 1454.84 254.016 1454.84 255.936C1454.84 257.856 1455.25 259.307 1456.09 260.288C1456.94 261.269 1458.07 261.76 1459.48 261.76ZM1468.92 264L1472.28 258.176C1472.75 257.408 1473.19 256.789 1473.59 256.32C1474 255.851 1474.42 255.499 1474.87 255.264C1475.34 255.008 1475.89 254.848 1476.5 254.784L1475.77 255.808L1469.69 247.872H1473.21L1478.3 254.464H1480.63V247.872H1483.83V254.464H1486.14L1491.19 247.872H1494.71L1488.63 255.808L1487.9 254.784C1488.49 254.848 1489.03 255.008 1489.5 255.264C1489.97 255.499 1490.4 255.851 1490.81 256.32C1491.24 256.789 1491.67 257.408 1492.12 258.176L1495.48 264H1492.02L1489.18 259.072C1488.86 258.517 1488.54 258.091 1488.22 257.792C1487.92 257.472 1487.58 257.259 1487.19 257.152C1486.81 257.024 1486.34 256.96 1485.78 256.96H1483.83V264H1480.63V256.96H1478.62C1478.06 256.96 1477.59 257.024 1477.21 257.152C1476.85 257.259 1476.52 257.472 1476.22 257.792C1475.92 258.091 1475.6 258.517 1475.26 259.072L1472.41 264H1468.92ZM1497.85 264V247.872H1501.05V254.432H1509.21V247.872H1512.41V264H1509.21V256.96H1501.05V264H1497.85ZM1524.88 264.288C1522.27 264.288 1520.22 263.552 1518.73 262.08C1517.24 260.608 1516.49 258.571 1516.49 255.968C1516.49 254.283 1516.81 252.811 1517.45 251.552C1518.11 250.293 1519.02 249.323 1520.17 248.64C1521.34 247.936 1522.7 247.584 1524.24 247.584C1525.75 247.584 1527.02 247.904 1528.04 248.544C1529.07 249.184 1529.85 250.091 1530.38 251.264C1530.91 252.416 1531.18 253.781 1531.18 255.36V256.384H1519.02V254.528H1528.97L1528.43 254.944C1528.43 253.344 1528.06 252.107 1527.34 251.232C1526.64 250.336 1525.61 249.888 1524.27 249.888C1522.77 249.888 1521.62 250.411 1520.81 251.456C1520 252.48 1519.6 253.899 1519.6 255.712V256.032C1519.6 257.931 1520.05 259.36 1520.97 260.32C1521.91 261.28 1523.23 261.76 1524.94 261.76C1525.88 261.76 1526.75 261.632 1527.56 261.376C1528.4 261.099 1529.18 260.651 1529.93 260.032L1530.99 262.24C1530.24 262.901 1529.33 263.413 1528.27 263.776C1527.2 264.117 1526.07 264.288 1524.88 264.288ZM1542.72 264.288C1540.12 264.288 1538.07 263.552 1536.58 262.08C1535.08 260.608 1534.34 258.571 1534.34 255.968C1534.34 254.283 1534.66 252.811 1535.3 251.552C1535.96 250.293 1536.86 249.323 1538.02 248.64C1539.19 247.936 1540.54 247.584 1542.08 247.584C1543.59 247.584 1544.86 247.904 1545.89 248.544C1546.91 249.184 1547.69 250.091 1548.22 251.264C1548.76 252.416 1549.02 253.781 1549.02 255.36V256.384H1536.86V254.528H1546.82L1546.27 254.944C1546.27 253.344 1545.91 252.107 1545.18 251.232C1544.48 250.336 1543.46 249.888 1542.11 249.888C1540.62 249.888 1539.47 250.411 1538.66 251.456C1537.84 252.48 1537.44 253.899 1537.44 255.712V256.032C1537.44 257.931 1537.9 259.36 1538.82 260.32C1539.75 261.28 1541.08 261.76 1542.78 261.76C1543.72 261.76 1544.6 261.632 1545.41 261.376C1546.24 261.099 1547.03 260.651 1547.78 260.032L1548.83 262.24C1548.08 262.901 1547.18 263.413 1546.11 263.776C1545.04 264.117 1543.91 264.288 1542.72 264.288Z" fill="white"/>
</svg>
